<svg xmlns="http://www.w3.org/2000/svg" width="1600" height="520" viewBox="0 0 1600 520" role="img" aria-labelledby="title desc">
  <title id="title">Infamous Freight Showcase Banner</title>
  <desc id="desc">A four-panel showcase banner for the Infamous Freight README screenshots section.</desc>
  <defs>
    <linearGradient id="bg" x1="0" y1="0" x2="1" y2="1">
      <stop offset="0%" stop-color="#0b0d12"/>
      <stop offset="100%" stop-color="#161b25"/>
    </linearGradient>
  </defs>
  <rect width="1600" height="520" fill="url(#bg)" rx="24"/>
  <text x="64" y="72" fill="#f8fafc" font-size="42" font-weight="800" font-family="Inter, Arial, sans-serif">Infamous Freight Platform Showcase</text>
  <text x="64" y="110" fill="#f87171" font-size="20" font-weight="700" font-family="Inter, Arial, sans-serif">Dispatch • Tracking • Operations • Intelligence</text>
  <g transform="translate(56 144)">
    <g>
      <rect width="350" height="300" rx="20" fill="#111827" stroke="#334155"/>
      <text x="24" y="36" fill="#f8fafc" font-size="20" font-weight="700" font-family="Inter, Arial, sans-serif">Operations Dashboard</text>
      <rect x="24" y="56" width="302" height="12" rx="6" fill="#ef4444"/>
      <rect x="24" y="88" width="92" height="62" rx="12" fill="#172033"/>
      <rect x="128" y="88" width="92" height="62" rx="12" fill="#172033"/>
      <rect x="232" y="88" width="92" height="62" rx="12" fill="#172033"/>
      <rect x="24" y="170" width="302" height="98" rx="16" fill="#0b1220" stroke="#1f2937"/>
    </g>
    <g transform="translate(380 0)">
      <rect width="350" height="300" rx="20" fill="#111827" stroke="#334155"/>
      <text x="24" y="36" fill="#f8fafc" font-size="20" font-weight="700" font-family="Inter, Arial, sans-serif">Shipment Workflow</text>
      <rect x="24" y="56" width="280" height="12" rx="6" fill="#ef4444"/>
      <circle cx="56" cy="128" r="18" fill="#ef4444"/>
      <circle cx="174" cy="128" r="18" fill="#f97316"/>
      <circle cx="292" cy="128" r="18" fill="#22c55e"/>
      <rect x="56" y="124" width="236" height="8" rx="4" fill="#334155"/>
      <rect x="24" y="184" width="302" height="84" rx="16" fill="#0b1220" stroke="#1f2937"/>
    </g>
    <g transform="translate(760 0)">
      <rect width="350" height="300" rx="20" fill="#111827" stroke="#334155"/>
      <text x="24" y="36" fill="#f8fafc" font-size="20" font-weight="700" font-family="Inter, Arial, sans-serif">Mobile Operations</text>
      <rect x="124" y="62" width="102" height="190" rx="18" fill="#0b1220" stroke="#475569"/>
      <rect x="138" y="84" width="74" height="10" rx="5" fill="#ef4444"/>
      <rect x="138" y="108" width="74" height="42" rx="10" fill="#172033"/>
      <rect x="138" y="160" width="74" height="42" rx="10" fill="#172033"/>
      <rect x="138" y="212" width="74" height="20" rx="10" fill="#22c55e"/>
    </g>
    <g transform="translate(1140 0)">
      <rect width="350" height="300" rx="20" fill="#111827" stroke="#334155"/>
      <text x="24" y="36" fill="#f8fafc" font-size="20" font-weight="700" font-family="Inter, Arial, sans-serif">Platform Architecture</text>
      <rect x="118" y="68" width="110" height="42" rx="10" fill="#172033"/>
      <rect x="118" y="142" width="110" height="42" rx="10" fill="#172033"/>
      <rect x="118" y="216" width="110" height="42" rx="10" fill="#172033"/>
      <path d="M173 110 L173 142" stroke="#ef4444" stroke-width="6" stroke-linecap="round"/>
      <path d="M173 184 L173 216" stroke="#ef4444" stroke-width="6" stroke-linecap="round"/>
      <rect x="40" y="142" width="58" height="42" rx="10" fill="#0b1220" stroke="#334155"/>
      <rect x="248" y="142" width="58" height="42" rx="10" fill="#0b1220" stroke="#334155"/>
      <path d="M98 163 L118 163" stroke="#475569" stroke-width="5" stroke-linecap="round"/>
      <path d="M228 163 L248 163" stroke="#475569" stroke-width="5" stroke-linecap="round"/>
    </g>
  </g>
</svg>
